<?xml version="1.0" standalone="no"?>
<!DOCTYPE svg PUBLIC "-//W3C//DTD SVG 1.1//EN" "http://www.w3.org/Graphics/SVG/1.1/DTD/svg11.dtd" >
<!--
2013-9-30: Created.
-->
<svg>
<metadata>
Created by iconfont
</metadata>
<defs>

<font id="iconfont" horiz-adv-x="1024" >
  <font-face
    font-family="iconfont"
    font-weight="500"
    font-stretch="normal"
    units-per-em="1024"
    ascent="896"
    descent="-128"
  />
    <missing-glyph />
    
    <glyph glyph-name="icon_wancheng" unicode="&#58923;" d="M878.011587 742.057848c5.29066-1.365332 10.239986-4.095995 14.404247-8.226122a32.255957 32.255957 0 0 0 9.045321-26.897031 31.914624 31.914624 0 0 0-24.4053-33.791955L489.028639 285.013124a32.767956 32.767956 0 0 0-9.454921-21.401571 32.733823 32.733823 0 0 0-46.216472 0L208.179946 488.788852a32.870356 32.870356 0 0 0 0 46.216472c12.629316 12.66345 33.450622 12.66345 46.250605 0l196.846671-196.812538L821.247929 708.095227A448.784468 448.784468 0 0 1 512.000341 831.999061C265.011871 831.999061 64.000939 630.988129 64.000939 383.999659S265.011871-63.999744 512.000341-63.999744 959.999744 137.011188 959.999744 383.999659c0 40.618613-5.393059 80.895892-16.213312 119.70544a32.085291 32.085291 0 0 0 22.323171 39.389814 32.085291 32.085291 0 0 0 39.389814-22.289037A510.975319 510.975319 0 0 0 1023.999659 384.102059a509.609987 509.609987 0 0 0-150.0158-362.085918A511.111852 511.111852 0 0 0 512.000341-127.999659c-69.085775 0-136.191818 13.516782-199.304267 40.209013a510.292653 510.292653 0 0 0-162.67925 109.806787 510.292653 510.292653 0 0 0-109.806787 162.67925A508.756655 508.756655 0 0 0 0.001024 383.999659c0 69.085775 13.516782 136.191818 40.209013 199.304267a510.292653 510.292653 0 0 0 109.806787 162.67925A510.292653 510.292653 0 0 0 312.66194 855.789963 508.756655 508.756655 0 0 0 512.000341 895.998976c74.069235 0 145.510206-15.496513 212.41145-46.011672a508.859055 508.859055 0 0 0 153.599796-107.895323z"  horiz-adv-x="1024" />

    
    <glyph glyph-name="btn_daochu" unicode="&#58921;" d="M524.130462 321.614769L693.169231 490.653538a39.542154 39.542154 0 0 0 55.768615 0 39.542154 39.542154 0 0 0 0-55.768615l-236.307692-236.307692A39.384615 39.384615 0 0 0 483.170462 187.076923a42.692923 42.692923 0 0 0-31.82277 12.445539L195.741538 455.128615a42.771692 42.771692 0 0 0 60.337231 60.337231l189.282462-189.282461V854.252308c0 22.843077 17.723077 41.668923 39.384615 41.668923s39.384615-18.747077 39.384616-41.747693v-532.637538z m371.869538-403.692307h-768C57.422769-82.077538 0-35.209846 0 22.291692v208.738462C0 250.328615 19.062154 265.846154 42.692923 265.846154c23.630769 0 42.614154-15.517538 42.614154-34.816v-208.738462c0-19.219692 19.140923-34.737231 42.692923-34.73723h768c23.552 0 42.692923 15.517538 42.692923 34.73723v208.738462c0 19.298462 19.062154 34.816 42.614154 34.816 23.630769 0 42.692923-15.517538 42.692923-34.816v-208.738462c0-57.501538-57.501538-104.369231-128-104.36923z"  horiz-adv-x="1024" />

    
    <glyph glyph-name="btn_piliangdaochu" unicode="&#58922;" d="M533.267692 460.957538a42.771692 42.771692 0 0 0 65.220923 54.508308l189.203693-189.282461V854.252308c0 22.843077 17.723077 41.668923 39.384615 41.668923s39.384615-18.747077 39.384615-41.747693v-532.637538l169.03877 169.038769a39.542154 39.542154 0 0 0 55.768615 0 39.542154 39.542154 0 0 0 0-55.768615l-236.307692-236.307692A39.384615 39.384615 0 0 0 825.501538 187.076923a42.692923 42.692923 0 0 0-31.822769 12.445539L588.484923 404.716308 382.345846 198.577231A39.384615 39.384615 0 0 0 352.886154 187.076923a42.692923 42.692923 0 0 0-31.822769 12.445539L65.457231 455.128615a42.771692 42.771692 0 0 0 60.337231 60.337231L315.076923 326.183385V854.252308C315.076923 877.095385 332.8 896 354.461538 896s39.384615-18.747077 39.384616-41.747692v-532.637539l139.421538 139.421539zM974.690462-128h-768C136.192-128 78.769231-81.211077 78.769231-23.630769v208.738461c0 19.219692 19.062154 34.816 42.692923 34.816 23.630769 0 42.614154-15.596308 42.614154-34.816v-208.738461c0-19.219692 19.140923-34.816 42.692923-34.816h768c23.552 0 42.692923 15.596308 42.692923 34.816v208.738461c0 19.219692 19.062154 34.816 42.614154 34.816 23.630769 0 42.692923-15.596308 42.692923-34.816v-208.738461c0-57.501538-57.501538-104.369231-128-104.369231z"  horiz-adv-x="1102" />

    
    <glyph glyph-name="btn_shanchu" unicode="&#58916;" d="M512 896c282.760533 0 512-229.239467 512-512 0-282.760533-229.239467-512-512-512-282.760533 0-512 229.239467-512 512C0 666.760533 229.239467 896 512 896z m0-34.133333C248.081067 861.866667 34.133333 647.918933 34.133333 384s213.947733-477.866667 477.866667-477.866667 477.866667 213.947733 477.866667 477.866667S775.918933 861.866667 512 861.866667z m-170.666667-443.733334h341.333334a34.133333 34.133333 0 1 0 0-68.266666H341.333333a34.133333 34.133333 0 1 0 0 68.266666z"  horiz-adv-x="1024" />

    
    <glyph glyph-name="btn_tianjia" unicode="&#58919;" d="M512 896c282.760533 0 512-229.239467 512-512 0-282.760533-229.239467-512-512-512-282.760533 0-512 229.239467-512 512C0 666.760533 229.239467 896 512 896z m-34.133333-477.866667h-136.533334a34.133333 34.133333 0 1 1 0-68.266666h136.533334v-136.533334a34.133333 34.133333 0 1 1 68.266666 0v136.533334h136.533334a34.133333 34.133333 0 1 1 0 68.266666h-136.533334v136.533334a34.133333 34.133333 0 1 1-68.266666 0v-136.533334z"  horiz-adv-x="1024" />

    
    <glyph glyph-name="btn_bukeshangchu" unicode="&#58920;" d="M512 896c282.760533 0 512-229.239467 512-512 0-282.760533-229.239467-512-512-512-282.760533 0-512 229.239467-512 512C0 666.760533 229.239467 896 512 896z m-170.666667-477.866667a34.133333 34.133333 0 1 1 0-68.266666h341.333334a34.133333 34.133333 0 1 1 0 68.266666H341.333333z"  horiz-adv-x="1024" />

    
    <glyph glyph-name="icon_tishi_youjian1" unicode="&#58918;" d="M971.483429 676.571429l18.797714-265.801143A146.285714 146.285714 0 0 1 1097.142857 164.571429v-219.428572a73.142857 73.142857 0 0 0-73.142857-73.142857H73.142857a73.142857 73.142857 0 0 0-73.142857 73.142857V603.428571a73.142857 73.142857 0 0 0 73.142857 73.142858h898.340572zM180.224 516.681143A24.795429 24.795429 0 0 1 146.285714 493.714286v-11.849143a36.571429 36.571429 0 0 1 22.966857-33.938286L510.683429 310.857143l343.990857 137.142857A36.571429 36.571429 0 0 1 877.714286 481.938286V493.714286a24.795429 24.795429 0 0 1-33.938286 22.966857L512 384 180.224 516.681143zM1033.947429 896h113.371428L1126.4 431.981714h-71.606857L1033.947429 896z m56.246857-528.676571c19.017143 0 35.328-5.412571 47.981714-18.139429 12.726857-11.776 19.017143-27.209143 19.017143-46.226286s-6.290286-34.377143-19.017143-47.104a71.972571 71.972571 0 0 0-47.981714-18.139428 62.902857 62.902857 0 0 0-46.226286 19.017143 60.416 60.416 0 0 0-19.968 46.226285c0 19.017143 6.363429 34.450286 19.968 46.226286a62.171429 62.171429 0 0 0 46.226286 18.139429z"  horiz-adv-x="1170" />

    
    <glyph glyph-name="icon_all" unicode="&#58914;" d="M78.769231 896h315.076923a78.769231 78.769231 0 0 0 78.769231-78.769231v-315.076923a78.769231 78.769231 0 0 0-78.769231-78.769231H78.769231a78.769231 78.769231 0 0 0-78.769231 78.769231V817.230769a78.769231 78.769231 0 0 0 78.769231 78.769231z m0-551.384615h315.076923a78.769231 78.769231 0 0 0 78.769231-78.769231v-315.076923a78.769231 78.769231 0 0 0-78.769231-78.769231H78.769231a78.769231 78.769231 0 0 0-78.769231 78.769231V265.846154a78.769231 78.769231 0 0 0 78.769231 78.769231z m708.923077 551.384615a236.307692 236.307692 0 1 0 0-472.615385 236.307692 236.307692 0 0 0 0 472.615385zM630.153846 344.615385h315.076923a78.769231 78.769231 0 0 0 78.769231-78.769231v-315.076923a78.769231 78.769231 0 0 0-78.769231-78.769231H630.153846a78.769231 78.769231 0 0 0-78.769231 78.769231V265.846154a78.769231 78.769231 0 0 0 78.769231 78.769231z"  horiz-adv-x="1024" />

    
    <glyph glyph-name="icon_riCheng_kecheng" unicode="&#58915;" d="M723.812063 896l723.897367-255.914695-723.897367-256.255915L0 640.085305l723.812063 255.914695z m603.276241-469.176941l120.621126-42.652449-723.897367-256.255915L0 384.17061l120.535821 42.652449 603.276242-213.603466L1327.088304 426.823059z m0-255.914695l120.621126-42.652449-723.897367-256.255915L0 128.255915l120.535821 42.652449 603.276242-213.603466L1327.088304 170.908364z"  horiz-adv-x="1450" />

    
    <glyph glyph-name="icon_tishi_kecheng" unicode="&#58917;" d="M1044.626286 676.571429H146.285714a73.142857 73.142857 0 1 1 0-146.285715h908.726857l8.411429-119.515428A146.285714 146.285714 0 0 1 1170.285714 164.571429v-292.571429H146.285714a146.285714 146.285714 0 0 0-146.285714 146.285714V603.428571a146.285714 146.285714 0 0 0 146.285714 146.285715h893.220572l5.12-73.142857zM1107.090286 896h113.371428L1199.542857 431.981714h-71.606857L1107.090286 896z m56.246857-528.676571c19.017143 0 35.328-5.412571 47.981714-18.139429 12.726857-11.776 19.017143-27.209143 19.017143-46.226286s-6.290286-34.377143-19.017143-47.104a71.972571 71.972571 0 0 0-47.981714-18.139428 62.902857 62.902857 0 0 0-46.226286 19.017143 60.416 60.416 0 0 0-19.968 46.226285c0 19.017143 6.363429 34.450286 19.968 46.226286a62.171429 62.171429 0 0 0 46.226286 18.139429z"  horiz-adv-x="1243" />

    
    <glyph glyph-name="btn_riCheng" unicode="&#58913;" d="M301.176471 775.529412v-60.235294H180.705882a120.470588 120.470588 0 0 1-120.470588-120.470589v-542.117647a120.470588 120.470588 0 0 1 120.470588-120.470588h843.294118a120.470588 120.470588 0 0 1 120.470588 120.470588V594.823529a120.470588 120.470588 0 0 1-120.470588 120.470589h-120.470588V775.529412h120.470588a180.705882 180.705882 0 0 0 180.705882-180.705883v-542.117647a180.705882 180.705882 0 0 0-180.705882-180.705882H180.705882a180.705882 180.705882 0 0 0-180.705882 180.705882V594.823529a180.705882 180.705882 0 0 0 180.705882 180.705883h120.470589z m30.117647-240.941177h542.117647a30.117647 30.117647 0 1 0 0-60.235294h-542.117647a30.117647 30.117647 0 1 0 0 60.235294z m0-180.705882h542.117647a30.117647 30.117647 0 1 0 0-60.235294h-542.117647a30.117647 30.117647 0 1 0 0 60.235294z m0-180.705882h542.117647a30.117647 30.117647 0 1 0 0-60.235295h-542.117647a30.117647 30.117647 0 1 0 0 60.235295z m60.235294 722.823529a30.117647 30.117647 0 0 0 30.117647-30.117647v-180.705882a30.117647 30.117647 0 1 0-60.235294 0v180.705882a30.117647 30.117647 0 0 0 30.117647 30.117647zM481.882353 775.529412h240.941176v-60.235294H481.882353V775.529412z m331.294118 120.470588a30.117647 30.117647 0 0 0 30.117647-30.117647v-180.705882a30.117647 30.117647 0 1 0-60.235294 0v180.705882a30.117647 30.117647 0 0 0 30.117647 30.117647z"  horiz-adv-x="1204" />

    
    <glyph glyph-name="btn_jiaoShi" unicode="&#58897;" d="M536.178146-67.764706h332.257882a361.712941 361.712941 0 0 1-294.369882 295.875765L632.494381 166.550588 536.178146-67.764706z m-49.272471 0L391.553205 166.550588l58.247529 61.500236A361.712941 361.712941 0 0 1 155.611558-67.764706h331.294117zM512.023793 293.647059A301.176471 301.176471 0 1 0 512.023793 896a301.176471 301.176471 0 0 0 0-602.352941z m0 60.235294a240.941176 240.941176 0 1 1 0 481.882353 240.941176 240.941176 0 0 1 0-481.882353zM91.039322-104.207059a30.238118 30.238118 0 0 0 1.264942 16.986353 421.647059 421.647059 0 0 0 839.439058 0 30.057412 30.057412 0 0 0 1.264942-16.986353c0.421647-7.830588 0.662588-15.781647 0.662588-23.792941H90.376734c0 8.011294 0.240941 15.902118 0.662588 23.792941z m420.382118 322.620235L451.788499 166.550588 511.42144-7.529412 572.259087 166.550588l-60.837647 51.802353z"  horiz-adv-x="1024" />

    
    <glyph glyph-name="btn_jiaoShi_selected" unicode="&#58898;" d="M512 293.647059A301.176471 301.176471 0 1 0 512 896a301.176471 301.176471 0 0 0 0-602.352941z m421.647059-421.647059H90.352941a421.647059 421.647059 0 0 0 843.294118 0z m-421.827765 421.647059L391.529412 166.550588 511.397647-128 632.470588 166.550588 511.819294 293.647059z"  horiz-adv-x="1024" />

    
    <glyph glyph-name="btn_banJI_selected" unicode="&#58899;" d="M1091.037867 619.246933a374.3744 374.3744 0 0 1-11.605334 67.310934 238.933333 238.933333 0 1 0-36.727466-458.1376 551.7312 551.7312 0 0 1-91.682134 61.508266 240.708267 240.708267 0 0 0-2.798933 3.140267c17.954133 14.1312 34.6112 29.764267 49.698133 46.830933a170.666667 170.666667 0 1 1 93.115734 279.3472z m33.450666-474.180266a560.5376 560.5376 0 0 1-57.344 61.917866c19.114667 4.164267 38.912 6.3488 59.255467 6.3488 169.642667 0 307.2-152.849067 307.2-341.333333h-204.8c0 22.596267-2.2528 45.4656-6.690133 68.266667h135.714133c-26.692267 118.5792-121.378133 204.8-231.424 204.8h-1.979733zM435.6096 339.899733c15.086933-17.066667 31.744-32.768 49.698133-46.830933l-2.798933-3.140267c-32.768-17.476267-63.488-38.229333-91.613867-61.508266a238.933333 238.933333 0 1 0-36.727466 458.1376 374.3744 374.3744 0 0 1-11.6736-67.310934 170.666667 170.666667 0 1 1 93.115733-279.3472zM309.179733 145.066667H307.2c-110.045867 0-204.731733-86.2208-231.424-204.8h135.714133A360.925867 360.925867 0 0 1 204.8-128H0c0 188.484267 137.557333 341.333333 307.2 341.333333 20.2752 0 40.072533-2.184533 59.323733-6.3488a560.5376 560.5376 0 0 1-57.344-61.917866zM716.8 281.6a307.2 307.2 0 1 0 0 614.4 307.2 307.2 0 0 0 0-614.4z m443.733333-409.6H273.066667c0 226.235733 198.656 409.6 443.733333 409.6s443.733333-183.364267 443.733333-409.6z"  horiz-adv-x="1433" />

    
    <glyph glyph-name="btn_keCheng_selected" unicode="&#58900;" d="M486.4 896v-563.2l153.6 153.6 153.6-153.6V896a153.6 153.6 0 0 0 153.6-153.6v-716.8a153.6 153.6 0 0 0-153.6-153.6H230.4a153.6 153.6 0 0 0-153.6 153.6V742.4a153.6 153.6 0 0 0 153.6 153.6h256z m51.2-51.2h204.8v-389.0176l-102.4 101.9904-102.4-101.9904V844.8z"  horiz-adv-x="1024" />

    
    <glyph glyph-name="btn_tumuliebiao_xiayi" unicode="&#58901;" d="M267.815385 261.907692V896h472.615384v-634.092308h157.538462L508.061538-128 118.153846 261.907692h149.661539z"  horiz-adv-x="1024" />

    
    <glyph glyph-name="btn_tumuliebiao_bianji" unicode="&#58903;" d="M714.174622 738.461538L493.069391 422.833231a118.153846 118.153846 0 1 1 193.536-135.483077L866.199237 543.665231V-49.230769a78.769231 78.769231 0 0 0-78.769231-78.769231H157.27616a78.769231 78.769231 0 0 0-78.769231 78.769231V659.692308a78.769231 78.769231 0 0 0 78.769231 78.76923h556.898462zM928.663237 839.049846a39.384615 39.384615 0 0 0 9.688615-54.902154L622.17216 332.484923a39.384615 39.384615 0 1 0-64.590769 45.213539L873.997391 829.361231a39.384615 39.384615 0 0 0 54.823384 9.688615z"  horiz-adv-x="1024" />

    
    <glyph glyph-name="btn_keCheng" unicode="&#58904;" d="M486.4 844.8H230.4a102.4 102.4 0 0 1-102.4-102.4v-716.8a102.4 102.4 0 0 1 102.4-102.4h563.2a102.4 102.4 0 0 1 102.4 102.4V742.4a102.4 102.4 0 0 1-102.4 102.4v-512l-153.6 153.6-153.6-153.6V844.8zM230.4 896h563.2a153.6 153.6 0 0 0 153.6-153.6v-716.8a153.6 153.6 0 0 0-153.6-153.6H230.4a153.6 153.6 0 0 0-153.6 153.6V742.4a153.6 153.6 0 0 0 153.6 153.6z m307.2-51.2v-389.0176l102.4 101.9904 102.4-101.9904V844.8H537.6z"  horiz-adv-x="1024" />

    
    <glyph glyph-name="btn_riCheng_selected" unicode="&#58905;" d="M783.058824 715.294118V865.882353a30.117647 30.117647 0 0 0 60.235294 0V715.294118h60.235294V775.529412h120.470588a180.705882 180.705882 0 0 0 180.705882-180.705883v-542.117647a180.705882 180.705882 0 0 0-180.705882-180.705882H180.705882a180.705882 180.705882 0 0 0-180.705882 180.705882V594.823529a180.705882 180.705882 0 0 0 180.705882 180.705883h120.470589v-60.235294h60.235294V865.882353a30.117647 30.117647 0 0 0 60.235294 0V715.294118h60.235294V775.529412h240.941176v-60.235294h60.235295zM331.294118 534.588235a30.117647 30.117647 0 0 1 0-60.235294h542.117647a30.117647 30.117647 0 0 1 0 60.235294h-542.117647z m0-180.705882a30.117647 30.117647 0 0 1 0-60.235294h542.117647a30.117647 30.117647 0 0 1 0 60.235294h-542.117647z m0-180.705882a30.117647 30.117647 0 0 1 0-60.235295h542.117647a30.117647 30.117647 0 0 1 0 60.235295h-542.117647z"  horiz-adv-x="1204" />

    
    <glyph glyph-name="btn_banJI" unicode="&#58906;" d="M1091.037867 619.246933a374.3744 374.3744 0 0 1-11.605334 67.310934 238.933333 238.933333 0 1 0-36.727466-458.1376 551.7312 551.7312 0 0 1-91.682134 61.508266 240.571733 240.571733 0 0 0-2.798933 3.140267c17.954133 14.1312 34.6112 29.764267 49.698133 46.830933a170.666667 170.666667 0 1 1 93.115734 279.3472z m33.450666-474.180266a560.5376 560.5376 0 0 1-57.344 61.917866c19.114667 4.164267 38.912 6.3488 59.255467 6.3488 169.642667 0 307.2-152.849067 307.2-341.333333h-204.8c0 22.596267-2.2528 45.4656-6.690133 68.266667h135.714133c-26.692267 118.5792-121.378133 204.8-231.424 204.8h-1.979733zM435.6096 339.899733c15.086933-17.066667 31.744-32.768 49.698133-46.830933l-2.798933-3.140267c-32.768-17.476267-63.488-38.229333-91.613867-61.508266a238.933333 238.933333 0 1 0-36.727466 458.1376 374.3744 374.3744 0 0 1-11.6736-67.310934 170.666667 170.666667 0 1 1 93.115733-279.3472zM309.179733 145.066667H307.2c-110.045867 0-204.731733-86.2208-231.424-204.8h135.714133A360.925867 360.925867 0 0 1 204.8-128H0c0 188.484267 137.557333 341.333333 307.2 341.333333 20.2752 0 40.072533-2.184533 59.323733-6.3488a560.5376 560.5376 0 0 1-57.344-61.917866z m768.955734-204.8a375.6032 375.6032 0 0 1-722.670934 0h722.670934z m-735.232-68.266667H273.066667c0 226.235733 198.656 409.6 443.733333 409.6s443.733333-183.364267 443.733333-409.6H342.8352zM716.8 281.6a307.2 307.2 0 1 0 0 614.4 307.2 307.2 0 0 0 0-614.4z m0 68.266667a238.933333 238.933333 0 1 1 0 477.866666 238.933333 238.933333 0 0 1 0-477.866666z"  horiz-adv-x="1433" />

    
    <glyph glyph-name="btn_tumuliebiao_shanchu" unicode="&#58907;" d="M512-128a512 512 0 1 0 0 1024 512 512 0 0 0 0-1024z m-236.307692 551.384615a39.384615 39.384615 0 0 1 0-78.76923h472.615384a39.384615 39.384615 0 0 1 0 78.76923h-472.615384z"  horiz-adv-x="1024" />

    
    <glyph glyph-name="btn_sheZhi_selected" unicode="&#58908;" d="M56.888889 896h341.333333a56.888889 56.888889 0 0 0 56.888889-56.888889v-398.222222H56.888889a56.888889 56.888889 0 0 0-56.888889 56.888889V839.111111a56.888889 56.888889 0 0 0 56.888889 56.888889z m568.888889 0h341.333333a56.888889 56.888889 0 0 0 56.888889-56.888889v-341.333333a56.888889 56.888889 0 0 0-56.888889-56.888889h-398.222222V839.111111a56.888889 56.888889 0 0 0 56.888889 56.888889z m0-56.888889v-341.333333h341.333333V839.111111h-341.333333zM56.888889 327.111111h398.222222v-398.222222a56.888889 56.888889 0 0 0-56.888889-56.888889H56.888889a56.888889 56.888889 0 0 0-56.888889 56.888889v341.333333a56.888889 56.888889 0 0 0 56.888889 56.888889z m0-56.888889v-341.333333h341.333333v341.333333H56.888889z m512 56.888889h398.222222a56.888889 56.888889 0 0 0 56.888889-56.888889v-341.333333a56.888889 56.888889 0 0 0-56.888889-56.888889h-341.333333a56.888889 56.888889 0 0 0-56.888889 56.888889v398.222222z"  horiz-adv-x="1024" />

    
    <glyph glyph-name="btn_kaoShi" unicode="&#58909;" d="M896 279.4496c-4.1984-2.816-8.192-6.0416-11.8784-9.728L844.8 230.4V742.4a102.4 102.4 0 0 1-102.4 102.4H179.2a102.4 102.4 0 0 1-102.4-102.4v-716.8a102.4 102.4 0 0 1 102.4-102.4h563.2a102.4 102.4 0 0 1 101.5296 89.088L896 64.4096V25.6a153.6 153.6 0 0 0-153.6-153.6H179.2a153.6 153.6 0 0 0-153.6 153.6V742.4a153.6 153.6 0 0 0 153.6 153.6h563.2a153.6 153.6 0 0 0 153.6-153.6v-462.9504zM581.0176 179.2a76.9536 76.9536 0 0 1-7.5776-51.2H256a25.6 25.6 0 0 0 0 51.2h325.0176zM256 691.2h409.6a25.6 25.6 0 0 0 0-51.2h-409.6a25.6 25.6 0 0 0 0 51.2z m0-256h409.6a25.6 25.6 0 0 0 0-51.2h-409.6a25.6 25.6 0 0 0 0 51.2z m501.4016-364.5952l162.9184 162.9184a25.6 25.6 0 0 0 36.1984-36.1984l-181.0432-181.0432a25.6 25.6 0 0 0-36.1984 0l-108.5952 108.5952a25.6 25.6 0 0 0 36.1984 36.1984l90.5216-90.4704z"  horiz-adv-x="1024" />

    
    <glyph glyph-name="btn_kaoShi_slected" unicode="&#58910;" d="M921.6 291.1744c-15.36-2.4576-30.0544-9.6256-41.8816-21.504l-126.72-126.6688-54.272 54.272a76.8 76.8 0 0 1-122.112-18.0736H281.6a25.6 25.6 0 0 1 0-51.2h287.4368c2.8672-14.3872 9.8816-28.16 21.0432-39.3216l108.5952-108.5952a76.8 76.8 0 0 1 108.6464 0L921.6 94.3616V25.6a153.6 153.6 0 0 0-153.6-153.6H204.8a153.6 153.6 0 0 0-153.6 153.6V742.4a153.6 153.6 0 0 0 153.6 153.6h563.2a153.6 153.6 0 0 0 153.6-153.6v-451.2256zM281.6 691.2a25.6 25.6 0 0 1 0-51.2h409.6a25.6 25.6 0 0 1 0 51.2h-409.6z m0-256a25.6 25.6 0 0 1 0-51.2h409.6a25.6 25.6 0 0 1 0 51.2h-409.6z m471.3984-364.5952l162.9184 162.9184a25.6 25.6 0 0 0 36.1984-36.1984l-180.992-181.0432a25.6 25.6 0 0 0-36.1984 0l-108.6464 108.5952a25.6 25.6 0 0 0 36.1984 36.1984l90.5216-90.4704z"  horiz-adv-x="1024" />

    
    <glyph glyph-name="btn_tumuliebiao_shangyi" unicode="&#58911;" d="M748.307692 506.092308V-128H275.692308V506.092308H118.153846L508.061538 896 897.969231 506.092308H748.307692z"  horiz-adv-x="1024" />

    
    <glyph glyph-name="btn_sheZhi" unicode="&#58912;" d="M56.888889 896h341.333333a56.888889 56.888889 0 0 0 56.888889-56.888889v-398.222222H56.888889a56.888889 56.888889 0 0 0-56.888889 56.888889V839.111111a56.888889 56.888889 0 0 0 56.888889 56.888889z m0-56.888889v-341.333333h341.333333V839.111111H56.888889z m568.888889 56.888889h341.333333a56.888889 56.888889 0 0 0 56.888889-56.888889v-341.333333a56.888889 56.888889 0 0 0-56.888889-56.888889h-398.222222V839.111111a56.888889 56.888889 0 0 0 56.888889 56.888889z m0-56.888889v-341.333333h341.333333V839.111111h-341.333333zM56.888889 327.111111h398.222222v-398.222222a56.888889 56.888889 0 0 0-56.888889-56.888889H56.888889a56.888889 56.888889 0 0 0-56.888889 56.888889v341.333333a56.888889 56.888889 0 0 0 56.888889 56.888889z m0-56.888889v-341.333333h341.333333v341.333333H56.888889z m512 56.888889h398.222222a56.888889 56.888889 0 0 0 56.888889-56.888889v-341.333333a56.888889 56.888889 0 0 0-56.888889-56.888889h-341.333333a56.888889 56.888889 0 0 0-56.888889 56.888889v398.222222z m56.888889-56.888889v-341.333333h341.333333v341.333333h-341.333333z"  horiz-adv-x="1024" />

    


  </font>
</defs>
</svg>
